# Blender v2.78 (sub 0) OBJ File: 'Skip Go.blend'
# www.blender.org
mtllib SkipGo.mtl
o Inst3D_RefRep.305_Ref
v 1.871678 1.832178 -0.046861
v 1.960355 1.820596 -0.072800
v 1.959872 1.890089 0.101898
v 2.034191 1.865838 0.045675
v 2.057355 2.043673 0.095383
v 2.112733 1.989865 0.040368
v 2.066767 2.139588 -0.059891
v 2.117438 2.068526 -0.083417
v 1.978694 2.081677 -0.208529
v 2.043602 2.023283 -0.202014
v 1.881090 1.927972 -0.202014
v 1.965060 1.899378 -0.196705
v 1.087709 2.381487 0.291918
v 1.141639 2.436381 0.160774
v 1.033900 2.330693 0.175855
v 1.031849 2.407667 0.047123
v 1.070819 2.366647 0.000071
v 1.153583 2.526264 -0.002100
v 1.222352 2.471128 0.003207
v 1.291363 2.518904 0.123252
v 1.091449 2.540742 0.047727
v 1.149119 2.594189 0.170426
v 1.147309 2.514562 0.292521
v 1.227058 2.491397 0.299640
v 1.144294 2.331779 0.301812
v 1.214992 2.313080 0.250536
v 1.145982 2.265303 0.130492
v 2.008614 1.960425 -0.068336
v 1.916198 2.098327 -0.159667
v 1.840311 1.970199 -0.155444
v 1.834640 1.890813 -0.029005
v 1.904857 1.939433 0.093452
v 1.980744 2.067441 0.089350
v 1.986415 2.147069 -0.037330
v 1.287624 2.439880 0.246916
v 1.149722 2.344328 0.006706
v 1.231642 2.588639 0.147744
v 1.066114 2.269405 0.152087
v -1.960215 1.820596 -0.072800
v -1.959731 1.890089 0.101898
v -2.034050 1.865838 0.045675
v -2.057215 2.043673 0.095383
v -2.112593 1.989865 0.040368
v -2.066626 2.139588 -0.059891
v -2.117298 2.068526 -0.083417
v -1.978554 2.081677 -0.208529
v -2.043462 2.023283 -0.202014
v -1.880949 1.927972 -0.202014
v -1.964919 1.899378 -0.196705
v -1.871538 1.832178 -0.046861
v -1.033760 2.330693 0.175855
v -1.141498 2.436381 0.160774
v -1.087569 2.381487 0.291918
v -1.147169 2.514562 0.292521
v -1.144153 2.331779 0.301812
v -1.226917 2.491397 0.299640
v -1.214852 2.313080 0.250536
v -1.287483 2.439880 0.246916
v -1.231502 2.588639 0.147744
v -1.291223 2.518904 0.123252
v -1.153443 2.526264 -0.002100
v -1.222211 2.471128 0.003207
v -2.008473 1.960425 -0.068336
v -1.840170 1.970199 -0.155444
v -1.834500 1.890813 -0.029005
v -1.904717 1.939433 0.093452
v -1.980605 2.067441 0.089350
v -1.986275 2.147069 -0.037330
v -1.916058 2.098327 -0.159667
v -1.149582 2.344328 0.006706
v -1.145842 2.265303 0.130492
v -1.148979 2.594189 0.170426
v -1.091309 2.540742 0.047727
v -1.031709 2.407667 0.047123
v -1.070678 2.366647 0.000071
v -1.065974 2.269405 0.152087
v -2.047323 1.087057 -0.113699
v -1.774538 0.648140 -0.113699
v -2.078449 1.053759 -0.068939
v -1.793961 0.607000 -0.068939
v -2.047564 1.086815 -0.023456
v -1.774658 0.647899 -0.023456
v -2.016678 1.119873 -0.068698
v -1.755354 0.688679 -0.068698
v -1.141378 0.201141 -0.113699
v -1.150910 0.156622 -0.068939
v -1.141378 0.200900 -0.023456
v -1.131847 0.245057 -0.068698
v 0.000070 -0.002754 -0.113699
v 0.000070 -0.048359 -0.068939
v 0.000070 -0.003116 -0.023456
v 0.000070 0.042127 -0.068698
v 1.151050 0.156622 -0.068939
v 1.141519 0.200900 -0.023456
v 1.131987 0.245057 -0.068698
v 1.141519 0.201141 -0.113699
v -2.273174 1.505946 -0.068939
v -2.218279 1.773060 -0.113699
v -2.229139 1.517528 -0.113699
v -2.181844 1.746639 -0.068698
v -1.970470 1.916872 -0.068698
v -2.218522 1.773181 -0.023456
v -1.996891 1.953549 -0.023456
v -2.255078 1.799723 -0.068939
v -2.023434 1.990106 -0.068939
v -1.996771 1.953308 -0.113699
v -2.229380 1.517528 -0.023456
v -2.185705 1.529110 -0.068698
v 1.774678 0.648140 -0.113699
v 2.078589 1.053759 -0.068939
v 1.794101 0.607000 -0.068939
v 2.047704 1.086815 -0.023456
v 1.774798 0.647899 -0.023456
v 2.016818 1.119873 -0.068698
v 1.755494 0.688679 -0.068698
v 2.047463 1.087057 -0.113699
v 2.218420 1.773060 -0.113699
v 2.256907 1.797310 -0.068939
v 2.273315 1.505946 -0.068939
v 2.218662 1.773181 -0.023456
v 2.229520 1.517528 -0.023456
v 2.180416 1.749052 -0.068698
v 2.185845 1.529110 -0.068698
v 2.229279 1.517528 -0.113699
v 1.970610 1.916872 -0.068698
v 1.997032 1.953549 -0.023456
v 2.023575 1.990106 -0.068939
v 1.996911 1.953308 -0.113699
vt 0.0160 0.7500
vt 0.0160 0.8750
vt 0.2500 0.7500
vt 0.2500 0.8750
vt 0.5000 0.7500
vt 0.5000 0.8750
vt 0.7340 0.7500
vt 0.7340 0.8750
vt 0.5000 0.7500
vt 0.5000 0.8750
vt 0.2500 0.7500
vt 0.2500 0.8750
vt 0.2500 0.1250
vt 0.1410 0.0160
vt 0.0160 0.1250
vt 0.2500 0.1250
vt 0.2500 0.2500
vt 0.5000 0.2500
vt 0.5000 0.3750
vt 0.7340 0.3750
vt 0.5000 0.1250
vt 0.3800 0.0160
vt 0.7340 0.1250
vt 0.5000 0.1250
vt 0.5000 0.2500
vt 0.2500 0.2500
vt 0.2500 0.3750
vt 0.0160 0.3750
vt 0.3750 0.9840
vt 0.5000 0.6250
vt 0.2500 0.6250
vt 0.0160 0.6250
vt 0.2500 0.6250
vt 0.5000 0.6250
vt 0.7340 0.6250
vt 0.5000 0.3750
vt 0.2500 0.3750
vt 0.7340 0.2500
vt 0.0160 0.2500
vt 0.0160 0.8750
vt 0.2500 0.7500
vt 0.2500 0.8750
vt 0.5000 0.7500
vt 0.5000 0.8750
vt 0.7340 0.7500
vt 0.7340 0.8750
vt 0.5000 0.7500
vt 0.5000 0.8750
vt 0.2500 0.7500
vt 0.2500 0.8750
vt 0.0160 0.7500
vt 0.0160 0.1250
vt 0.1410 0.0160
vt 0.2500 0.1250
vt 0.5000 0.1250
vt 0.2500 0.2500
vt 0.5000 0.2500
vt 0.2500 0.3750
vt 0.5000 0.3750
vt 0.7340 0.2500
vt 0.7340 0.3750
vt 0.5000 0.2500
vt 0.5000 0.3750
vt 0.3750 0.9840
vt 0.2500 0.6250
vt 0.0160 0.6250
vt 0.2500 0.6250
vt 0.5000 0.6250
vt 0.7340 0.6250
vt 0.5000 0.6250
vt 0.2500 0.3750
vt 0.0160 0.3750
vt 0.7340 0.1250
vt 0.5000 0.1250
vt 0.3800 0.0160
vt 0.2500 0.1250
vt 0.2500 0.2500
vt 0.0160 0.2500
vt 0.8750 0.5340
vt 0.8750 0.5000
vt 0.9840 0.5340
vt 0.9840 0.5000
vt 0.8750 0.5340
vt 0.8750 0.5000
vt 0.7660 0.5340
vt 0.7660 0.5000
vt 0.8750 0.4380
vt 0.9840 0.4380
vt 0.8750 0.4380
vt 0.7660 0.4380
vt 0.8750 0.3750
vt 0.9840 0.3750
vt 0.8750 0.3750
vt 0.7660 0.3750
vt 0.9840 0.4380
vt 0.8750 0.4380
vt 0.7660 0.4380
vt 0.8750 0.4380
vt 0.9840 0.5630
vt 0.8750 0.6250
vt 0.8750 0.5630
vt 0.7660 0.6250
vt 0.7660 0.6880
vt 0.8750 0.6250
vt 0.8750 0.6880
vt 0.9840 0.6250
vt 0.9840 0.6880
vt 0.8750 0.6880
vt 0.8750 0.5630
vt 0.7660 0.5630
vt 0.8750 0.5000
vt 0.9840 0.5340
vt 0.9840 0.5000
vt 0.8750 0.5340
vt 0.8750 0.5000
vt 0.7660 0.5340
vt 0.7660 0.5000
vt 0.8750 0.5340
vt 0.8750 0.6250
vt 0.9840 0.6250
vt 0.9840 0.5630
vt 0.8750 0.6250
vt 0.8750 0.5630
vt 0.7660 0.6250
vt 0.7660 0.5630
vt 0.8750 0.5630
vt 0.7660 0.6880
vt 0.8750 0.6880
vt 0.9840 0.6880
vt 0.8750 0.6880
vn -0.5309 -0.8468 0.0306
vn 0.3461 -0.9120 -0.2203
vn -0.0511 -0.5254 0.8493
vn 0.6312 -0.7301 0.2617
vn 0.4620 0.3331 0.8219
vn 0.9430 -0.2208 0.2488
vn 0.4964 0.8678 -0.0220
vn 0.9620 0.0965 -0.2554
vn 0.0213 0.5434 -0.8392
vn 0.6721 -0.1009 -0.7335
vn -0.4924 -0.3124 -0.8123
vn 0.3689 -0.5999 -0.7100
vn -0.7563 0.0827 0.6489
vn -0.8862 0.4015 0.2311
vn -0.9675 -0.0501 0.2479
vn -0.9663 0.1688 -0.1943
vn -0.4888 -0.3295 -0.8078
vn -0.0127 0.5532 -0.8329
vn 0.2154 0.4140 -0.8844
vn 0.6188 0.7818 -0.0763
vn -0.7276 0.6473 -0.2272
vn -0.4890 0.8459 0.2128
vn -0.5059 0.5488 0.6655
vn 0.4281 0.3486 0.8338
vn -0.0472 -0.5352 0.8434
vn 0.1223 -0.6180 0.7766
vn -0.2708 -0.9608 -0.0583
vn 0.8036 -0.5149 -0.2984
vn -0.1349 0.6338 -0.7616
vn -0.6249 -0.2277 -0.7468
vn -0.6744 -0.7318 0.0982
vn -0.2438 -0.3807 0.8920
vn 0.2275 0.4496 0.8638
vn 0.2857 0.9567 0.0562
vn 0.5780 0.2705 0.7698
vn -0.2203 -0.4434 -0.8688
vn 0.4456 0.8952 -0.0085
vn -0.5207 -0.8536 0.0144
vn -0.3461 -0.9120 -0.2203
vn 0.0511 -0.5254 0.8493
vn -0.6312 -0.7301 0.2617
vn -0.4620 0.3331 0.8219
vn -0.9430 -0.2208 0.2488
vn -0.4964 0.8678 -0.0220
vn -0.9620 0.0965 -0.2554
vn -0.0213 0.5434 -0.8392
vn -0.6721 -0.1009 -0.7335
vn 0.4924 -0.3124 -0.8123
vn -0.3689 -0.5999 -0.7100
vn 0.5309 -0.8468 0.0306
vn 0.9675 -0.0501 0.2479
vn 0.8862 0.4015 0.2311
vn 0.7563 0.0827 0.6489
vn 0.5059 0.5488 0.6655
vn 0.0472 -0.5352 0.8434
vn -0.4281 0.3486 0.8338
vn -0.1223 -0.6180 0.7766
vn -0.5780 0.2705 0.7698
vn -0.4456 0.8952 -0.0085
vn -0.6188 0.7818 -0.0763
vn 0.0127 0.5532 -0.8329
vn -0.2154 0.4140 -0.8844
vn -0.8036 -0.5149 -0.2984
vn 0.6249 -0.2277 -0.7468
vn 0.6744 -0.7318 0.0982
vn 0.2438 -0.3807 0.8920
vn -0.2275 0.4496 0.8638
vn -0.2857 0.9567 0.0562
vn 0.1349 0.6338 -0.7616
vn 0.2203 -0.4434 -0.8688
vn 0.2708 -0.9608 -0.0583
vn 0.4890 0.8459 0.2128
vn 0.7276 0.6473 -0.2272
vn 0.9663 0.1688 -0.1943
vn 0.4888 -0.3295 -0.8078
vn 0.5207 -0.8536 0.0144
vn -0.0301 -0.0071 -0.9995
vn -0.0880 -0.0399 -0.9953
vn -0.8804 -0.4741 -0.0035
vn -0.7046 -0.7096 -0.0038
vn -0.0407 -0.0110 0.9991
vn -0.0964 -0.0450 0.9943
vn 0.8960 0.4441 -0.0017
vn 0.7559 0.6547 -0.0025
vn -0.0526 -0.0808 -0.9953
vn -0.3699 -0.9290 -0.0044
vn -0.0556 -0.0866 0.9947
vn 0.4058 0.9139 -0.0008
vn 0.0000 -0.0734 -0.9973
vn 0.0000 -1.0000 -0.0054
vn 0.0000 -0.0807 0.9967
vn 0.0000 1.0000 0.0005
vn 0.3699 -0.9290 -0.0044
vn 0.0556 -0.0866 0.9947
vn -0.4058 0.9139 -0.0008
vn 0.0526 -0.0808 -0.9953
vn -0.9828 -0.1846 -0.0041
vn -0.1751 0.0573 -0.9829
vn -0.0909 -0.0056 -0.9958
vn 0.9109 -0.4125 0.0002
vn 0.6306 -0.7761 0.0003
vn -0.1807 0.0600 0.9817
vn -0.0196 0.0206 0.9996
vn -0.8794 0.4760 -0.0047
vn -0.6349 0.7725 -0.0051
vn -0.0159 0.0161 -0.9997
vn -0.0981 -0.0073 0.9951
vn 0.9836 0.1802 -0.0009
vn 0.0880 -0.0399 -0.9953
vn 0.8804 -0.4741 -0.0035
vn 0.7046 -0.7096 -0.0038
vn 0.0407 -0.0110 0.9991
vn 0.0964 -0.0450 0.9943
vn -0.8960 0.4441 -0.0017
vn -0.7559 0.6547 -0.0025
vn 0.0301 -0.0071 -0.9995
vn 0.1687 0.0662 -0.9834
vn 0.8849 0.4657 -0.0047
vn 0.9827 -0.1851 -0.0041
vn 0.1743 0.0689 0.9823
vn 0.0986 -0.0085 0.9951
vn -0.9030 -0.4295 0.0002
vn -0.9843 0.1762 -0.0009
vn 0.0915 -0.0068 -0.9958
vn -0.6303 -0.7763 0.0003
vn 0.0209 0.0203 0.9996
vn 0.6370 0.7709 -0.0051
vn 0.0172 0.0159 -0.9997
usemtl RefRep.305_Rope.png
s 1
f 1/1/1 2/2/2 3/3/3
f 2/2/2 4/4/4 3/3/3
f 3/3/3 4/4/4 5/5/5
f 4/4/4 6/6/6 5/5/5
f 5/5/5 6/6/6 7/7/7
f 6/6/6 8/8/8 7/7/7
f 7/7/7 8/8/8 9/9/9
f 8/8/8 10/10/10 9/9/9
f 9/9/9 10/10/10 11/11/11
f 10/10/10 12/12/12 11/11/11
f 12/12/12 1/1/1 11/11/11
f 2/2/2 1/1/1 12/12/12
f 13/13/13 14/14/14 15/15/15
f 14/14/14 16/16/16 15/15/15
f 15/15/15 16/16/16 17/17/17
f 16/16/16 18/18/18 17/17/17
f 17/17/17 18/18/18 19/19/19
f 18/18/18 20/20/20 19/19/19
f 21/21/21 14/22/14 22/23/22
f 14/22/14 23/24/23 22/23/22
f 22/23/22 23/24/23 24/25/24
f 23/24/23 25/26/25 24/25/24
f 24/25/24 25/26/25 26/27/26
f 25/26/25 27/28/27 26/27/26
f 4/4/4 2/2/2 28/29/28
f 2/2/2 12/12/12 28/29/28
f 28/29/28 12/12/12 10/10/10
f 10/10/10 8/8/8 28/29/28
f 8/8/8 6/6/6 28/29/28
f 28/29/28 6/6/6 4/4/4
f 29/30/29 9/9/9 30/31/30
f 9/9/9 11/11/11 30/31/30
f 30/31/30 11/11/11 31/32/31
f 11/11/11 1/1/1 31/32/31
f 31/32/31 1/1/1 32/33/32
f 1/1/1 3/3/3 32/33/32
f 32/33/32 3/3/3 33/34/33
f 3/3/3 5/5/5 33/34/33
f 33/34/33 5/5/5 34/35/34
f 5/5/5 7/7/7 34/35/34
f 34/35/34 7/7/7 29/30/29
f 7/7/7 9/9/9 29/30/29
f 35/36/35 33/34/33 20/20/20
f 33/34/33 34/35/34 20/20/20
f 20/20/20 34/35/34 19/19/19
f 34/35/34 29/30/29 19/19/19
f 19/19/19 29/30/29 36/37/36
f 29/30/29 30/31/30 36/37/36
f 36/37/36 30/31/30 27/28/27
f 30/31/30 31/32/31 27/28/27
f 27/28/27 31/32/31 26/27/26
f 31/32/31 32/33/32 26/27/26
f 26/27/26 32/33/32 35/36/35
f 32/33/32 33/34/33 35/36/35
f 24/25/24 37/38/37 22/23/22
f 22/23/22 37/38/37 21/21/21
f 37/38/37 18/18/18 21/21/21
f 21/21/21 18/18/18 16/16/16
f 23/24/23 13/13/13 25/26/25
f 13/13/13 38/39/38 25/26/25
f 25/26/25 38/39/38 27/28/27
f 38/39/38 36/37/36 27/28/27
f 13/13/13 15/15/15 38/39/38
f 15/15/15 17/17/17 38/39/38
f 38/39/38 17/17/17 36/37/36
f 17/17/17 19/19/19 36/37/36
f 24/25/24 35/36/35 37/38/37
f 35/36/35 20/20/20 37/38/37
f 37/38/37 20/20/20 18/18/18
f 35/36/35 24/25/24 26/27/26
f 16/16/16 14/22/14 21/21/21
f 23/24/23 14/14/14 13/13/13
f 39/40/39 40/41/40 41/42/41
f 40/41/40 42/43/42 41/42/41
f 41/42/41 42/43/42 43/44/43
f 42/43/42 44/45/44 43/44/43
f 43/44/43 44/45/44 45/46/45
f 44/45/44 46/47/46 45/46/45
f 45/46/45 46/47/46 47/48/47
f 46/47/46 48/49/48 47/48/47
f 47/48/47 48/49/48 49/50/49
f 48/49/48 50/51/50 49/50/49
f 49/50/49 50/51/50 39/40/39
f 50/51/50 40/41/40 39/40/39
f 51/52/51 52/53/52 53/54/53
f 52/53/52 54/55/54 53/54/53
f 53/54/53 54/55/54 55/56/55
f 54/55/54 56/57/56 55/56/55
f 55/56/55 56/57/56 57/58/57
f 56/57/56 58/59/58 57/58/57
f 58/59/58 59/60/59 60/61/60
f 59/60/59 61/62/61 60/61/60
f 60/61/60 61/62/61 62/63/62
f 39/40/39 41/42/41 63/64/63
f 41/42/41 43/44/43 63/64/63
f 63/64/63 43/44/43 45/46/45
f 46/47/46 64/65/64 48/49/48
f 64/65/64 65/66/65 48/49/48
f 48/49/48 65/66/65 50/51/50
f 65/66/65 66/67/66 50/51/50
f 50/51/50 66/67/66 40/41/40
f 66/67/66 67/68/67 40/41/40
f 40/41/40 67/68/67 42/43/42
f 67/68/67 68/69/68 42/43/42
f 42/43/42 68/69/68 44/45/44
f 68/69/68 69/70/69 44/45/44
f 44/45/44 69/70/69 46/47/46
f 69/70/69 64/65/64 46/47/46
f 67/68/67 60/61/60 68/69/68
f 60/61/60 62/63/62 68/69/68
f 68/69/68 62/63/62 69/70/69
f 62/63/62 70/71/70 69/70/69
f 69/70/69 70/71/70 64/65/64
f 70/71/70 71/72/71 64/65/64
f 64/65/64 71/72/71 65/66/65
f 71/72/71 57/58/57 65/66/65
f 65/66/65 57/58/57 66/67/66
f 57/58/57 58/59/58 66/67/66
f 66/67/66 58/59/58 67/68/67
f 58/59/58 60/61/60 67/68/67
f 56/57/56 72/73/72 59/60/59
f 72/73/72 73/74/73 59/60/59
f 59/60/59 73/74/73 61/62/61
f 56/57/56 54/55/54 72/73/72
f 54/55/54 52/75/52 72/73/72
f 72/73/72 52/75/52 73/74/73
f 52/75/52 74/76/74 73/74/73
f 73/74/73 74/76/74 61/62/61
f 74/76/74 75/77/75 61/62/61
f 61/62/61 75/77/75 62/63/62
f 75/77/75 70/71/70 62/63/62
f 55/56/55 76/78/76 53/54/53
f 53/54/53 76/78/76 51/52/51
f 76/78/76 75/77/75 51/52/51
f 51/52/51 75/77/75 74/76/74
f 56/57/56 59/60/59 58/59/58
f 57/58/57 71/72/71 55/56/55
f 55/56/55 71/72/71 76/78/76
f 71/72/71 70/71/70 76/78/76
f 76/78/76 70/71/70 75/77/75
f 74/76/74 52/53/52 51/52/51
f 45/46/45 47/48/47 63/64/63
f 47/48/47 49/50/49 63/64/63
f 63/64/63 49/50/49 39/40/39
f 77/79/77 78/80/78 79/81/79
f 78/80/78 80/82/80 79/81/79
f 79/81/79 80/82/80 81/83/81
f 80/82/80 82/84/82 81/83/81
f 81/83/81 82/84/82 83/85/83
f 82/84/82 84/86/84 83/85/83
f 83/85/83 84/86/84 77/79/77
f 84/86/84 78/80/78 77/79/77
f 78/80/78 85/87/85 80/82/80
f 85/87/85 86/88/86 80/82/80
f 80/82/80 86/88/86 82/84/82
f 86/88/86 87/89/87 82/84/82
f 82/84/82 87/89/87 84/86/84
f 87/89/87 88/90/88 84/86/84
f 84/86/84 88/90/88 78/80/78
f 88/90/88 85/87/85 78/80/78
f 85/87/85 89/91/89 86/88/86
f 89/91/89 90/92/90 86/88/86
f 86/88/86 90/92/90 87/89/87
f 90/92/90 91/93/91 87/89/87
f 87/89/87 91/93/91 88/90/88
f 91/93/91 92/94/92 88/90/88
f 88/90/88 92/94/92 85/87/85
f 92/94/92 89/91/89 85/87/85
f 89/91/89 93/95/93 90/92/90
f 93/95/93 94/96/94 90/92/90
f 90/92/90 94/96/94 91/93/91
f 94/96/94 95/97/95 91/93/91
f 91/93/91 95/97/95 92/94/92
f 95/97/95 96/98/96 92/94/92
f 92/94/92 96/98/96 89/91/89
f 96/98/96 93/95/93 89/91/89
f 97/99/97 98/100/98 99/101/99
f 99/101/99 98/100/98 100/102/100
f 98/100/98 101/103/101 100/102/100
f 100/102/100 101/103/101 102/104/102
f 101/103/101 103/105/103 102/104/102
f 102/104/102 103/105/103 104/106/104
f 103/105/103 105/107/105 104/106/104
f 104/106/104 105/107/105 106/108/106
f 98/100/98 97/99/97 104/106/104
f 104/106/104 97/99/97 102/104/102
f 97/99/97 107/109/107 102/104/102
f 102/104/102 107/109/107 100/102/100
f 107/109/107 108/110/108 100/102/100
f 100/102/100 108/110/108 99/101/99
f 108/110/108 83/85/83 99/101/99
f 99/101/99 83/85/83 77/79/77
f 104/106/104 106/108/106 98/100/98
f 106/108/106 101/103/101 98/100/98
f 83/85/83 108/110/108 81/83/81
f 108/110/108 107/109/107 81/83/81
f 81/83/81 107/109/107 79/81/79
f 107/109/107 97/99/97 79/81/79
f 79/81/79 97/99/97 77/79/77
f 97/99/97 99/101/99 77/79/77
f 109/111/109 110/112/110 111/113/111
f 110/112/110 112/114/112 111/113/111
f 111/113/111 112/114/112 113/115/113
f 112/114/112 114/116/114 113/115/113
f 113/115/113 114/116/114 115/117/115
f 114/116/114 116/118/116 115/117/115
f 115/117/115 116/118/116 109/111/109
f 116/118/116 110/112/110 109/111/109
f 96/98/96 111/113/111 93/95/93
f 111/113/111 113/115/113 93/95/93
f 93/95/93 113/115/113 94/96/94
f 113/115/113 115/117/115 94/96/94
f 94/96/94 115/117/115 95/97/95
f 115/117/115 109/111/109 95/97/95
f 95/97/95 109/111/109 96/98/96
f 109/111/109 111/113/111 96/98/96
f 117/119/117 118/120/118 119/121/119
f 118/120/118 120/122/120 119/121/119
f 119/121/119 120/122/120 121/123/121
f 120/122/120 122/124/122 121/123/121
f 121/123/121 122/124/122 123/125/123
f 122/124/122 124/126/124 123/125/123
f 123/125/123 124/126/124 114/116/114
f 124/126/124 116/118/116 114/116/114
f 119/121/119 124/126/124 117/119/117
f 124/126/124 122/124/122 117/119/117
f 117/119/117 122/124/122 125/127/125
f 122/124/122 120/122/120 125/127/125
f 125/127/125 120/122/120 126/128/126
f 120/122/120 118/120/118 126/128/126
f 126/128/126 118/120/118 127/129/127
f 118/120/118 128/130/128 127/129/127
f 118/120/118 117/119/117 128/130/128
f 117/119/117 125/127/125 128/130/128
f 123/125/123 112/114/112 121/123/121
f 112/114/112 110/112/110 121/123/121
f 121/123/121 110/112/110 119/121/119
f 110/112/110 116/118/116 119/121/119
f 119/121/119 116/118/116 124/126/124
f 114/116/114 112/114/112 123/125/123
